<svg width="64" height="64" viewBox="0 0 64 64" fill="none" xmlns="http://www.w3.org/2000/svg">
<path d="M0 32C0 14.3269 14.3269 0 32 0C49.6731 0 64 14.3269 64 32C64 49.6731 49.6731 64 32 64C14.3269 64 0 49.6731 0 32Z" fill="#1963F3"/>
<path d="M31.6742 30.9234H29.1043V26.6195H32.153C33.8105 26.6195 34.7512 27.3591 34.7512 28.6964C34.7512 30.1244 33.6561 30.9234 31.6713 30.9234H31.6742ZM32.1332 32.6319H29.1057V37.3749H32.2663C34.3332 37.3749 35.4283 36.5461 35.4283 34.9878C35.4283 33.4295 34.3021 32.6319 32.1332 32.6319ZM49 31.1359V32.8614C47.402 33.0144 46.4259 34.1987 45.8465 36.0744C45.2699 37.943 45.1906 40.2351 45.2515 42.0046C45.3152 43.8462 43.8802 45.5462 41.9408 45.5462H22.0621C20.1213 45.5462 18.6862 43.8462 18.7513 42.0046C18.8122 40.2351 18.7329 37.943 18.1563 36.0744C17.5755 34.1987 16.598 33.0144 15 32.8614V31.1359C16.598 30.9829 17.5769 29.7986 18.1549 27.9229C18.7329 26.0543 18.8122 23.7621 18.7499 21.9927C18.6862 20.151 20.1213 18.451 22.0621 18.451H41.9408C43.8816 18.451 45.3152 20.151 45.2515 21.9927C45.1906 23.7621 45.2699 26.0543 45.8465 27.9229C46.4259 29.7986 47.402 30.9829 49 31.1359ZM37.7701 35.1266C37.7701 33.2085 36.42 31.8216 34.4154 31.602V31.5212C35.8888 31.2818 37.0447 29.9133 37.0447 28.3861C37.0447 26.2087 35.3263 24.7906 32.7069 24.7906H26.8136V39.201H32.7367C35.8788 39.201 37.7701 37.6625 37.7701 35.1266Z" fill="white"/>
</svg>
