<svg width="64" height="64" viewBox="0 0 64 64" fill="none" xmlns="http://www.w3.org/2000/svg">
<path d="M0 32C0 14.3269 14.3269 0 32 0C49.6731 0 64 14.3269 64 32C64 49.6731 49.6731 64 32 64C14.3269 64 0 49.6731 0 32Z" fill="#1963F3"/>
<path d="M32.9442 43.3333H18.7776C18.2766 43.3333 17.7961 43.1343 17.4419 42.78C17.0877 42.4258 16.8887 41.9454 16.8887 41.4444V22.5555C16.8887 22.0546 17.0877 21.5741 17.4419 21.2199C17.7961 20.8656 18.2766 20.6666 18.7776 20.6666H45.222C45.723 20.6666 46.2034 20.8656 46.5576 21.2199C46.9119 21.5741 47.1109 22.0546 47.1109 22.5555V32.3494C45.8527 30.7469 44.0225 29.6943 42.0046 29.4126C39.9867 29.1309 37.9382 29.6421 36.2893 30.8388C34.6403 32.0355 33.5192 33.8246 33.1614 35.8303C32.8036 37.8361 33.2369 39.9025 34.3703 41.5955L33.492 42.6722L32.9442 43.3333ZM21.6109 26.3333V27.8444H37.6664V26.3333H21.6109ZM21.6109 31.6222H31.9998V30.1111H21.6109V31.6222ZM21.6109 38.2333H31.0553V36.7222H21.6109V38.2333Z" fill="white"/>
<path d="M46.9502 37.2794C46.9527 36.2836 46.708 35.3027 46.238 34.4248C45.768 33.5468 45.0874 32.7993 44.2573 32.2492C43.4272 31.6991 42.4736 31.3637 41.4819 31.273C40.4902 31.1824 39.4915 31.3393 38.5754 31.7297C37.6593 32.1201 36.8544 32.7319 36.233 33.51C35.6116 34.2882 35.1931 35.2084 35.015 36.1882C34.8369 37.1679 34.9048 38.1766 35.2126 39.1237C35.5203 40.0707 36.0584 40.9266 36.7785 41.6144L34.9463 43.8528L35.7963 47.2622L39.253 43.05C40.3471 43.3735 41.5116 43.3735 42.6057 43.05L46.0624 47.2622L46.9124 43.8528L45.0802 41.6144C45.6694 41.0563 46.139 40.3842 46.4605 39.639C46.7819 38.8938 46.9485 38.091 46.9502 37.2794ZM36.8068 37.2794C36.7956 36.4608 37.0281 35.6574 37.4747 34.9712C37.9213 34.2851 38.5619 33.7473 39.315 33.4262C40.0681 33.1051 40.8996 33.0153 41.7039 33.1681C42.5082 33.3208 43.2489 33.7094 43.8318 34.2843C44.4147 34.8591 44.8134 35.5944 44.9773 36.3965C45.1412 37.1986 45.0629 38.0313 44.7522 38.7888C44.4416 39.5463 43.9127 40.1942 43.2328 40.6503C42.5529 41.1063 41.7527 41.3499 40.9341 41.35C39.8493 41.3525 38.8076 40.926 38.0362 40.1634C37.2648 39.4008 36.8263 38.3641 36.8163 37.2794H36.8068Z" fill="white"/>
</svg>
