<svg width="64" height="64" viewBox="0 0 64 64" fill="none" xmlns="http://www.w3.org/2000/svg">
<path d="M0 32C0 14.3269 14.3269 0 32 0C49.6731 0 64 14.3269 64 32C64 49.6731 49.6731 64 32 64C14.3269 64 0 49.6731 0 32Z" fill="#FFC517"/>
<path d="M20.9385 19.4525H43.0597L41.0481 42.1673L31.9757 44.7343L22.953 42.1659L20.9385 19.4525ZM38.9415 24.1006L25.0581 24.0978L25.282 26.8588L35.9481 26.8617L35.6803 29.7233H28.6848L28.9384 32.4334H35.4508L35.0655 36.1451L31.9998 36.9923L28.8874 36.138L28.6876 33.9153H25.9393L26.2453 37.9768L31.9998 39.7689L37.6594 38.1582L38.9415 24.1006Z" fill="white"/>
</svg>
