<svg width="24" height="25" viewBox="0 0 24 25" fill="none" xmlns="http://www.w3.org/2000/svg">
<g clip-path="url(#clip0)">
<path fill-rule="evenodd" clip-rule="evenodd" d="M8.6064 14.2459L12.0024 16.5679L15.276 14.3095L22.614 21.5491C22.4208 21.6115 22.2144 21.6451 21.9996 21.6451H2.0004C1.7364 21.6451 1.4844 21.5935 1.2528 21.5011L8.6064 14.2459ZM24 8.29634V19.6447C24 19.9411 23.9352 20.2219 23.82 20.4751L16.6272 13.3783L24 8.29634ZM1.13232e-06 8.35994L7.2504 13.3183L0.127201 20.3479C0.0428361 20.1231 -0.00025468 19.8849 1.13232e-06 19.6447V8.36114V8.35994ZM21.9996 3.64514C23.1036 3.64514 24 4.54034 24 5.64554V6.34874L11.9976 14.6227L1.13232e-06 6.41714V5.64554C1.13232e-06 4.54154 0.895201 3.64514 2.0004 3.64514H21.9996Z" fill="white"/>
</g>
<defs>
<clipPath id="clip0">
<rect width="24" height="24" fill="white" transform="translate(0 0.645142)"/>
</clipPath>
</defs>
</svg>
