<svg width="446" height="623" viewBox="0 0 446 623" fill="none" xmlns="http://www.w3.org/2000/svg">
<rect x="1.01329" y="330.639" width="328.5" height="328.5" rx="7.25" transform="rotate(-62.1874 1.01329 330.639)" stroke="#0F95E0" stroke-width="1.5"/>
<rect x="349.881" y="89.1546" width="45.4139" height="45.4139" rx="3.25" transform="rotate(-107.971 349.881 89.1546)" stroke="#0F95E0" stroke-width="1.5"/>
<rect x="62.1307" y="441.592" width="27.2464" height="27.2464" rx="3.25" transform="rotate(-134.641 62.1307 441.592)" stroke="#0F95E0" stroke-width="1.5"/>
<rect x="51.9807" y="107.273" width="28.5989" height="28.5989" rx="3.25" transform="rotate(-39.5682 51.9807 107.273)" stroke="#0F95E0" stroke-width="1.5"/>
<g filter="url(#filter0_d)">
<path d="M124.366 359.622C124.366 359.622 99.7955 388.287 105.256 433.332L112.081 614.878H182.5L199.441 481.107L239.5 614.878C240.865 614.878 308.5 614.878 308.5 614.878C308.5 614.878 279.976 365.082 262.231 360.987C244.486 356.892 124.366 359.622 124.366 359.622Z" fill="#2F2E41"/>
</g>
<path d="M157.808 94.1283C157.808 94.1283 170.093 128.253 160.538 147.363C150.983 166.474 175.553 188.314 175.553 188.314C175.553 188.314 239.708 155.554 231.518 139.173C223.328 122.793 209.678 100.953 212.408 87.3032L157.808 94.1283Z" fill="#FFB8B8"/>
<path d="M181.696 107.096C205.82 107.096 225.376 87.5394 225.376 63.4155C225.376 39.2916 205.82 19.7354 181.696 19.7354C157.572 19.7354 138.016 39.2916 138.016 63.4155C138.016 87.5394 157.572 107.096 181.696 107.096Z" fill="#FFB8B8"/>
<path d="M150.3 145.316C150.3 145.316 194.127 181.786 226.814 130.108L260.865 149.411L278.61 356.892C278.61 356.892 178.965 414.222 131.189 365.082L138.014 172.616L150.3 145.316Z" fill="#D0CDE1"/>
<path d="M164.064 124.885L102.525 165.79L124.365 266.801L95.7002 423.776L142.11 354.161L164.064 124.885Z" fill="#575A89"/>
<path d="M218.452 113.5L233.566 123.476L294.992 145.316L285.437 314.577L311.372 423.777L274.517 442.887C274.517 442.887 267.691 391.017 225.376 365.082C183.061 339.147 208.798 121.269 218.452 113.5Z" fill="#575A89"/>
<path d="M116.175 378.732L133.92 391.017C133.92 391.017 111.397 414.904 107.302 410.809C106.117 409.672 105.197 408.287 104.607 406.753C104.018 405.22 103.773 403.576 103.89 401.937L99.7949 392.382L116.175 378.732Z" fill="#FFB8B8"/>
<path d="M234.139 376.076L228.106 385.557C228.106 385.557 210.361 393.747 214.456 399.207C218.551 404.667 252.676 416.952 259.501 404.667L266.327 392.382L234.139 376.076Z" fill="#FFB8B8"/>
<path d="M110.716 164.426L101.161 165.791L85.4633 267.484C85.4633 267.484 79.3208 285.911 86.1458 329.591C92.9708 373.272 99.7295 401.715 99.7295 401.715L129.826 380.097L116.176 344.607L133.921 214.931L110.716 164.426Z" fill="#575A89"/>
<path d="M273.151 142.586L294.991 145.316C294.991 145.316 319.561 171.251 323.656 198.551C327.751 225.851 326.386 303.656 326.386 303.656L263.596 403.302L229.471 378.732L277.246 294.101L254.041 193.091L273.151 142.586Z" fill="#575A89"/>
<path d="M223.348 23.9093C216.743 13.1832 206.404 5.27919 194.321 1.71859L185.446 8.8184L188.896 0.537268C185.995 0.0946194 183.058 -0.0751091 180.125 0.0303064L172.14 10.2969L175.445 0.381972C168.516 1.24303 161.841 3.53041 155.84 7.09986C149.839 10.6693 144.643 15.4434 140.579 21.1211C130.416 35.7752 128.701 56.1545 138.697 70.9232C141.441 62.4907 144.771 54.5783 147.515 46.1457C149.672 46.4397 151.857 46.4504 154.017 46.1774L157.355 38.3878L158.288 45.8479C168.635 44.9464 183.983 42.9672 193.792 41.1538L192.839 35.4309L198.545 40.1866C201.551 39.4947 203.335 38.8673 203.188 38.3878C210.483 50.1493 217.712 57.6615 225.008 69.4229C227.777 52.8331 232.666 39.043 223.348 23.9093Z" fill="#2F2E41"/>
<path d="M220.93 67.9574C222.563 67.9574 223.887 65.3097 223.887 62.0435C223.887 58.7774 222.563 56.1296 220.93 56.1296C219.297 56.1296 217.973 58.7774 217.973 62.0435C217.973 65.3097 219.297 67.9574 220.93 67.9574Z" fill="#FFB8B8"/>
<defs>
<filter id="filter0_d" x="100.464" y="358.73" width="212.036" height="264.148" filterUnits="userSpaceOnUse" color-interpolation-filters="sRGB">
<feFlood flood-opacity="0" result="BackgroundImageFix"/>
<feColorMatrix in="SourceAlpha" type="matrix" values="0 0 0 0 0 0 0 0 0 0 0 0 0 0 0 0 0 0 127 0"/>
<feOffset dy="4"/>
<feGaussianBlur stdDeviation="2"/>
<feColorMatrix type="matrix" values="0 0 0 0 0 0 0 0 0 0 0 0 0 0 0 0 0 0 0.25 0"/>
<feBlend mode="normal" in2="BackgroundImageFix" result="effect1_dropShadow"/>
<feBlend mode="normal" in="SourceGraphic" in2="effect1_dropShadow" result="shape"/>
</filter>
</defs>
</svg>
