<svg width="64" height="64" viewBox="0 0 64 64" fill="none" xmlns="http://www.w3.org/2000/svg">
<path d="M0 32C0 14.3269 14.3269 0 32 0C49.6731 0 64 14.3269 64 32C64 49.6731 49.6731 64 32 64C14.3269 64 0 49.6731 0 32Z" fill="#1963F3"/>
<path d="M19.8213 18.1875L22.0127 42.977L32.0002 45.8125L41.9479 42.977L44.1824 18.1875H19.8213ZM39.5771 24.0678L39.4178 25.635L39.3613 26.2824H27.6937L27.966 29.4102H39.0924L38.9828 30.217L38.2789 38.2588L38.2225 38.7967L32.0135 40.51V40.5199H31.9736L31.9637 40.5232V40.5199H31.9604L25.6982 38.7934L25.3197 33.9922H28.3445L28.5604 36.4227L31.9604 37.3424H31.9736L35.3604 36.426L35.7389 32.4881H31.9637V32.4848H25.1604L24.4033 24.0678L24.3469 23.2609H39.6303L39.5771 24.0678Z" fill="white"/>
</svg>
