<svg width="64" height="64" viewBox="0 0 64 64" fill="none" xmlns="http://www.w3.org/2000/svg">
<path d="M0 32C0 14.3269 14.3269 0 32 0C49.6731 0 64 14.3269 64 32C64 49.6731 49.6731 64 32 64C14.3269 64 0 49.6731 0 32Z" fill="#FFC517"/>
<path d="M16.0625 16.0625V47.9375H47.9375V16.0625H16.0625ZM33.4089 40.9229C33.4089 44.0254 31.5899 45.4364 28.9358 45.4364C26.5409 45.4364 25.1501 44.1954 24.4435 42.6994L26.883 41.2225C27.3537 42.047 27.7819 42.7525 28.8083 42.7525C29.7921 42.7525 30.4126 42.3774 30.4126 40.8719V30.6931H33.4089V40.9229ZM40.4915 45.4364C37.7099 45.4364 35.9121 44.1104 35.0356 42.3764L37.474 40.9664C38.1158 42.0056 38.9509 42.7833 40.4277 42.7833C41.6677 42.7833 42.4497 42.1628 42.4497 41.3001C42.4497 40.2737 41.6358 39.9082 40.2673 39.3185L39.5236 38.9891C37.3624 38.0701 35.9291 36.9141 35.9291 34.4735C35.9291 32.2284 37.6334 30.5157 40.3151 30.5157C42.2191 30.5157 43.5876 31.1798 44.5736 32.9106L42.2467 34.4034C41.7367 33.4896 41.1779 33.1178 40.3215 33.1178C39.446 33.1178 38.885 33.6724 38.885 34.4034C38.885 35.3086 39.4375 35.6656 40.7231 36.2202L41.4701 36.5496C44.0169 37.6334 45.4513 38.749 45.4513 41.2565C45.4587 43.9595 43.3411 45.4321 40.4947 45.4321L40.4915 45.4364Z" fill="white"/>
</svg>
