<svg width="113" height="56" viewBox="0 0 113 56" fill="none" xmlns="http://www.w3.org/2000/svg">
<rect width="113" height="56" rx="28" fill="white"/>
<path d="M28.0703 37.7001C30.1103 38.2001 32.0903 38.0501 33.8403 37.4201C34.5603 37.1601 34.7503 36.2001 34.1503 35.7101C33.0078 34.7764 32.0875 33.6001 31.4562 32.2665C30.8248 30.9329 30.4983 29.4755 30.5003 28.0001C30.4983 26.5246 30.8248 25.0672 31.4562 23.7336C32.0875 22.4001 33.0078 21.2237 34.1503 20.2901C34.7403 19.8001 34.5703 18.8401 33.8403 18.5901C32.8003 18.2101 31.6703 18.0001 30.5003 18.0001C24.4503 18.0001 19.6503 23.3801 20.6303 29.6001C21.2403 33.5201 24.2203 36.7601 28.0703 37.7001Z" fill="#A9A9A9"/>
<rect x="61" y="4" width="48" height="48" rx="24" fill="#0040CE"/>
<path d="M79.995 28C79.995 30.761 82.241 33.007 85.002 33.007C87.763 33.007 90.009 30.761 90.009 28C90.009 25.239 87.763 22.993 85.002 22.993C82.241 22.993 79.995 25.239 79.995 28ZM84 35H86V38H84V35ZM84 18H86V21H84V18ZM75 27H78V29H75V27ZM92 27H95V29H92V27Z" fill="white"/>
<path d="M78.6367 35.7779L77.2227 34.3639L79.3437 32.2429L80.7577 33.6569L78.6367 35.7779Z" fill="white"/>
<path d="M89.2422 22.3439L91.3642 20.2219L92.7782 21.6359L90.6562 23.7579L89.2422 22.3439Z" fill="white"/>
<path d="M79.3437 23.7589L77.2227 21.6369L78.6377 20.2229L80.7577 22.3449L79.3437 23.7589Z" fill="white"/>
<path d="M92.7782 34.3639L91.3642 35.7779L89.2422 33.6559L90.6562 32.2419L92.7782 34.3639Z" fill="white"/>
</svg>
