<svg width="64" height="64" viewBox="0 0 64 64" fill="none" xmlns="http://www.w3.org/2000/svg">
<path d="M0 32C0 14.3269 14.3269 0 32 0C49.6731 0 64 14.3269 64 32C64 49.6731 49.6731 64 32 64C14.3269 64 0 49.6731 0 32Z" fill="#1963F3"/>
<path d="M32 28.9677C30.3287 28.9677 28.9676 30.3287 28.9676 32C28.9676 33.6713 30.3287 35.0324 32 35.0324C33.6713 35.0324 35.0324 33.6713 35.0324 32C35.0324 30.3287 33.6713 28.9677 32 28.9677ZM23.5106 38.0265L22.8412 37.8608C17.8602 36.5985 15 34.4629 15 31.9947C15 29.5265 17.8613 27.3909 22.8412 26.1287L23.5106 25.9629L23.6987 26.627C24.204 28.3663 24.85 30.0616 25.6303 31.6962L25.7738 31.9947L25.6303 32.2986C24.8484 33.9324 24.2023 35.6279 23.6987 37.3678L23.5106 38.0265ZM22.5321 27.6778C18.7464 28.7403 16.4227 30.3723 16.4227 31.9947C16.4227 33.6172 18.7474 35.2428 22.5321 36.3117C22.996 34.8376 23.5561 33.3955 24.2087 31.9947C23.5552 30.5943 22.9951 29.1522 22.5321 27.6778ZM40.4894 38.0265L40.3013 37.3625C39.7969 35.6246 39.1509 33.9309 38.3697 32.2986L38.2262 31.9947L38.3697 31.6908C39.1516 30.057 39.7977 28.3616 40.3013 26.6217L40.4894 25.9629L41.1588 26.1287C46.1398 27.3909 49 29.5265 49 31.9947C49 34.4629 46.1387 36.5985 41.1588 37.8608L40.4894 38.0265ZM39.7913 31.9947C40.4461 33.3946 41.0062 34.8368 41.4679 36.3117C45.2589 35.2438 47.5773 33.6172 47.5773 31.9947C47.5773 30.3723 45.2526 28.7467 41.4679 27.6778C41.0029 29.1515 40.4429 30.5935 39.7913 31.9947ZM22.5204 27.6725L22.3323 27.0084C20.9319 22.072 21.358 18.5307 23.5 17.2961C25.6027 16.0838 28.9729 17.5171 32.5089 21.1477L32.9902 21.6407L32.5089 22.1337C31.2532 23.4401 30.1058 24.8466 29.0781 26.339L28.8847 26.61L28.5522 26.6376C26.7443 26.7803 24.951 27.0692 23.1898 27.5014L22.5204 27.6725ZM25.2096 18.2821C24.8281 18.2821 24.4903 18.3597 24.2076 18.5254C22.8019 19.3393 22.5533 22.1613 23.5213 25.9682C25.0315 25.6304 26.5623 25.3919 28.1038 25.2542C28.9913 23.9903 29.9617 22.7866 31.0087 21.6513C28.8008 19.4987 26.7087 18.281 25.2096 18.281V18.2821ZM38.7957 47.1237C38.7904 47.1237 38.7904 47.1237 38.7957 47.1237C36.7759 47.1237 34.1803 45.6075 31.4911 42.8407L31.0098 42.3477L31.4911 41.8547C32.7468 40.5483 33.8942 39.1418 34.9219 37.6493L35.1099 37.3784L35.4425 37.3455C37.2527 37.2076 39.0482 36.9186 40.8102 36.4817L41.4796 36.3159L41.6677 36.98C43.0681 41.9163 42.642 45.4523 40.5 46.6859C39.9821 46.9836 39.393 47.1345 38.7957 47.1226V47.1237ZM32.9902 42.3371C35.1981 44.4897 37.2902 45.7073 38.7894 45.7073H38.7947C39.1708 45.7073 39.5087 45.6245 39.7913 45.464C41.197 44.6502 41.452 41.8282 40.4777 38.0212C38.9677 38.3594 37.4367 38.5962 35.8951 38.7299C35.0077 39.9956 34.0373 41.201 32.9902 42.3382V42.3371ZM41.4796 27.6725L40.8102 27.5014C39.0469 27.0706 37.2519 26.7818 35.4425 26.6376L35.1099 26.61L34.9219 26.339C33.8942 24.8466 32.7468 23.4401 31.4911 22.1337L31.0098 21.6407L31.4911 21.1477C35.0271 17.5171 38.3973 16.0838 40.5 17.2961C42.642 18.5297 43.0681 22.072 41.6677 27.0084L41.4796 27.6725ZM35.8962 25.2542C37.4377 25.3915 38.9685 25.63 40.4788 25.9682C41.4531 22.1613 41.1981 19.3382 39.7924 18.5254C38.392 17.7179 35.7581 18.9568 32.9913 21.6523C34.0355 22.7901 35.0057 23.9936 35.8962 25.2553V25.2542ZM25.2096 47.1237C24.6114 47.1343 24.0196 46.9855 23.5 46.687C21.358 45.4534 20.9319 41.9163 22.3323 36.981L22.5204 36.317L23.1898 36.4827C24.8281 36.8982 26.6322 37.185 28.5522 37.3465L28.8847 37.3795L29.0728 37.6504C30.1005 39.1429 31.2479 40.5493 32.5036 41.8558L32.9849 42.3488L32.5036 42.8418C29.8198 45.6085 27.2241 47.1247 25.2096 47.1247V47.1237ZM23.5223 38.0212C22.548 41.8282 22.803 44.6512 24.2087 45.464C25.6091 46.2609 28.2377 45.0327 31.0098 42.3371C29.9627 41.1999 28.9923 39.9945 28.1049 38.7288C26.5632 38.5955 25.0322 38.3587 23.5223 38.0202V38.0212ZM32 38.9116C30.8323 38.9116 29.637 38.8617 28.4364 38.7618L28.1038 38.7342L27.9104 38.4579C27.2323 37.4835 26.5953 36.481 26.0011 35.4532C25.4058 34.4253 24.8538 33.3728 24.3468 32.2986L24.2034 31.9947L24.3468 31.6908C25.3626 29.5429 26.5545 27.4827 27.9104 25.5315L28.1038 25.2553L28.4364 25.2277C30.8079 25.0279 33.1921 25.0279 35.5636 25.2277L35.8962 25.2553L36.0896 25.5315C37.4472 27.4816 38.6392 29.5419 39.6532 31.6908L39.7966 31.9947L39.6532 32.2986C38.6413 34.4486 37.4491 36.5091 36.0896 38.4579L35.8962 38.7342L35.5636 38.7618C34.3783 38.861 33.1894 38.911 32 38.9116ZM28.8901 37.3731C30.9821 37.5335 33.0179 37.5335 35.1152 37.3731C36.285 35.6602 37.3245 33.8621 38.2252 31.9937C37.3283 30.1222 36.2868 28.3236 35.1099 26.6142C33.0397 26.4538 30.9602 26.4538 28.8901 26.6142C27.7124 28.323 26.6708 30.1217 25.7748 31.9937C26.6757 33.863 27.7171 35.6613 28.8901 37.3731Z" fill="white"/>
</svg>
