<svg width="64" height="64" viewBox="0 0 64 64" fill="none" xmlns="http://www.w3.org/2000/svg">
<path d="M0 32C0 14.3269 14.3269 0 32 0C49.6731 0 64 14.3269 64 32C64 49.6731 49.6731 64 32 64C14.3269 64 0 49.6731 0 32Z" fill="#FFC517"/>
<path d="M23.5 28.5912C24.633 24.0463 27.467 21.7734 32 21.7734C38.8 21.7734 39.65 26.8867 43.05 27.7389C45.317 28.3073 47.3 27.4552 49 25.1823C47.867 29.7271 45.033 32 40.5 32C33.7 32 32.85 26.8867 29.45 26.0345C27.183 25.4661 25.2 26.3183 23.5 28.5912ZM15 38.8177C16.133 34.2729 18.967 32 23.5 32C30.3 32 31.15 37.1133 34.55 37.9655C36.817 38.5339 38.8 37.6817 40.5 35.4088C39.367 39.9537 36.533 42.2266 32 42.2266C25.2 42.2266 24.35 37.1133 20.95 36.2611C18.683 35.6927 16.7 36.5448 15 38.8177Z" fill="white"/>
</svg>
