<svg width="24" height="24" viewBox="0 0 24 24" fill="none" xmlns="http://www.w3.org/2000/svg">
<path d="M22.2051 5.54986C18.615 -0.000183464 11.2852 -1.6502 5.60089 1.79983C0.0661373 5.24986 -1.72892 12.7499 1.86119 18.3L2.16037 18.75L0.963664 23.25L5.4513 22.05L5.90006 22.35C7.8447 23.4 9.93893 24 12.0332 24C14.277 24 16.5208 23.4 18.4654 22.2C24.0002 18.6 25.6456 11.2499 22.2051 5.54986ZM19.0638 17.0999C18.4654 18 17.7175 18.6 16.6704 18.75C16.072 18.75 15.3241 19.05 12.3323 17.85C9.78934 16.6499 7.69511 14.6999 6.19924 12.4499C5.30171 11.3999 4.85295 10.0499 4.70336 8.69988C4.70336 7.49987 5.15212 6.44987 5.90006 5.69986C6.19924 5.39986 6.49841 5.24986 6.79759 5.24986H7.54553C7.8447 5.24986 8.14388 5.24986 8.29347 5.84986C8.59264 6.59987 9.34058 8.39988 9.34058 8.54988C9.49017 8.69988 9.49017 8.99989 9.34058 9.14989C9.49017 9.44989 9.34058 9.74989 9.19099 9.89989C9.04141 10.0499 8.89182 10.3499 8.74223 10.4999C8.44305 10.6499 8.29347 10.9499 8.44305 11.2499C9.0414 12.1499 9.78934 13.0499 10.5373 13.7999C11.4348 14.5499 12.3323 15.1499 13.3794 15.5999C13.6786 15.7499 13.9778 15.7499 14.1274 15.4499C14.277 15.1499 15.0249 14.3999 15.3241 14.0999C15.6233 13.7999 15.7729 13.7999 16.072 13.9499L18.4654 15.1499C18.7646 15.2999 19.0638 15.4499 19.2134 15.5999C19.363 16.0499 19.363 16.6499 19.0638 17.0999Z" fill="white"/>
</svg>
